<svg xmlns="http://www.w3.org/2000/svg" width="100" height="100" viewBox="0 0 100 100" fill="none"><metadata><rdf:RDF xmlns:rdf="http://www.w3.org/1999/02/22-rdf-syntax-ns#" xmlns:dc="http://purl.org/dc/elements/1.1/"><rdf:Description><dc:creator>RealFaviconGenerator</dc:creator><dc:source>https://realfavicongenerator.net</dc:source></rdf:Description></rdf:RDF></metadata><rect width="100" height="100" rx="22" fill="url(#grad-bg)"></rect><rect width="100" height="100" rx="22" fill="url(#grad-glass)" opacity="0.5"></rect><polygon points="50,22 88,40 50,57 12,40" fill="url(#grad-cap-top)" stroke="rgba(255,255,255,0.35)" stroke-width="1"></polygon><ellipse cx="50" cy="42" rx="25" ry="5" fill="rgba(0,0,0,0.12)"></ellipse><path d="M34 45 Q34 66 50 68 Q66 66 66 45 L50 57 Z" fill="url(#grad-cap-body)" stroke="rgba(255,255,255,0.2)" stroke-width="0.8"></path><line x1="88" y1="40" x2="88" y2="60" stroke="url(#grad-tassel)" stroke-width="2.5" stroke-linecap="round"></line><circle cx="88" cy="63" r="4" fill="url(#grad-tassel-end)"></circle><path d="M48 54 C44 58 42 64 46 67 C50 70 54 65 52 60 C51 57 49 55 48 54Z" fill="url(#grad-leaf)" opacity="0.9"></path><ellipse cx="44" cy="35" rx="12" ry="4" fill="white" opacity="0.12" transform="rotate(-15 44 35)"></ellipse><defs>
    <linearGradient id="grad-bg" x1="0" y1="0" x2="100" y2="100" gradientUnits="userSpaceOnUse">
      <stop offset="0%" stop-color="#6a9e5e"></stop>
      <stop offset="50%" stop-color="#4e7c45"></stop>
      <stop offset="100%" stop-color="#8bac62"></stop>
    </linearGradient>
    <linearGradient id="grad-glass" x1="0" y1="0" x2="0" y2="100" gradientUnits="userSpaceOnUse">
      <stop offset="0%" stop-color="white" stop-opacity="0.25"></stop>
      <stop offset="100%" stop-color="white" stop-opacity="0.0"></stop>
    </linearGradient>
    <linearGradient id="grad-cap-top" x1="12" y1="22" x2="88" y2="57" gradientUnits="userSpaceOnUse">
      <stop offset="0%" stop-color="#d4e8a0"></stop>
      <stop offset="50%" stop-color="#a8c96a"></stop>
      <stop offset="100%" stop-color="#7aaa52"></stop>
    </linearGradient>
    <linearGradient id="grad-cap-body" x1="34" y1="45" x2="66" y2="68" gradientUnits="userSpaceOnUse">
      <stop offset="0%" stop-color="#8fbb60"></stop>
      <stop offset="100%" stop-color="#5a8c42"></stop>
    </linearGradient>
    <linearGradient id="grad-tassel" x1="0" y1="0" x2="0" y2="1" gradientUnits="objectBoundingBox">
      <stop offset="0%" stop-color="#c8de88"></stop>
      <stop offset="100%" stop-color="#7aaa52"></stop>
    </linearGradient>
    <linearGradient id="grad-tassel-end" x1="84" y1="59" x2="92" y2="67" gradientUnits="userSpaceOnUse">
      <stop offset="0%" stop-color="#d4e8a0"></stop>
      <stop offset="100%" stop-color="#6a9e5e"></stop>
    </linearGradient>
    <linearGradient id="grad-leaf" x1="42" y1="54" x2="52" y2="67" gradientUnits="userSpaceOnUse">
      <stop offset="0%" stop-color="#b8e06a"></stop>
      <stop offset="100%" stop-color="#4e8c35"></stop>
    </linearGradient>
  </defs></svg>